<?xml version="1.0" standalone="no"?>
<!DOCTYPE svg PUBLIC "-//W3C//DTD SVG 20010904//EN"
 "http://www.w3.org/TR/2001/REC-SVG-20010904/DTD/svg10.dtd">
<svg version="1.0" xmlns="http://www.w3.org/2000/svg"
 width="491.000000pt" height="158.000000pt" viewBox="0 0 491.000000 158.000000"
 preserveAspectRatio="xMidYMid meet">

<g transform="translate(0.000000,158.000000) scale(0.100000,-0.100000)"
fill="#000000" stroke="none">
<path d="M495 1520 c-158 -34 -299 -137 -388 -283 -41 -67 -77 -170 -77 -220
0 -36 9 -31 16 9 7 36 14 44 14 15 0 -12 4 -19 10 -16 5 3 10 0 10 -8 0 -9 12
-14 33 -14 17 -1 57 -8 87 -16 30 -9 69 -19 85 -22 17 -3 35 -7 42 -9 7 -1 16
-5 19 -9 4 -4 20 -7 35 -7 18 0 29 -6 32 -17 3 -12 5 -10 6 7 2 49 60 151 120
211 97 97 233 143 356 120 32 -6 60 -9 63 -7 2 3 -4 28 -13 56 -23 69 -47 83
-155 88 -110 5 -214 -16 -290 -60 -68 -39 -159 -130 -196 -197 -32 -56 -47
-66 -35 -23 29 98 126 211 224 260 95 49 176 65 285 60 l92 -5 -32 23 c-77 57
-238 87 -343 64z"/>
<path d="M1156 1313 c-9 -10 -7 -45 2 -39 13 8 3 -91 -15 -152 -9 -29 -19 -54
-22 -56 -3 -2 -6 44 -6 102 0 61 -5 115 -11 126 -10 17 -12 16 -25 -12 -10
-24 -16 -28 -27 -20 -10 9 -16 8 -23 -3 -8 -10 -8 -8 -4 10 5 15 3 21 -3 17
-6 -3 -12 1 -14 11 -2 9 -3 -26 -3 -78 0 -81 -4 -102 -26 -149 -59 -125 -166
-201 -314 -223 l-78 -12 59 -19 c74 -24 200 -32 279 -17 122 23 227 98 276
198 25 53 42 222 20 209 -7 -4 -9 -1 -5 8 3 8 -4 32 -15 54 -22 43 -34 55 -45
45z m29 -35 l16 -33 -20 25 c-20 24 -26 40 -16 40 2 0 12 -15 20 -32z m-94
-11 c-10 -9 -11 -8 -5 6 3 10 9 15 12 12 3 -3 0 -11 -7 -18z"/>
<path d="M1644 1186 c-18 -14 -19 -29 -19 -296 l0 -282 24 -19 c21 -17 41 -19
197 -19 l174 0 0 35 0 34 -157 3 -158 3 -3 113 -3 112 135 0 136 0 0 35 0 34
-132 3 -133 3 -3 65 c-2 36 0 80 3 98 l6 32 154 0 155 0 0 30 0 30 -178 0
c-138 0 -183 -3 -198 -14z"/>
<path d="M2122 911 c3 -272 4 -290 23 -311 37 -41 53 -43 69 -12 13 26 13 31
-2 46 -15 15 -17 49 -20 291 l-3 275 -35 0 -35 0 3 -289z"/>
<path d="M2608 1100 c2 -55 0 -100 -3 -100 -4 0 -13 7 -21 15 -22 21 -89 37
-129 29 -54 -10 -98 -44 -124 -98 -35 -69 -35 -210 -2 -279 32 -67 71 -91 152
-95 87 -5 130 14 167 77 l27 46 3 253 4 252 -39 0 -38 0 3 -100z m-55 -132
c41 -21 65 -139 48 -234 -14 -75 -43 -104 -104 -104 -83 0 -117 52 -117 175 0
79 15 129 46 156 32 29 80 31 127 7z"/>
<path d="M4310 1100 c0 -55 -3 -100 -6 -100 -3 0 -12 7 -20 15 -22 21 -89 37
-129 29 -96 -18 -147 -96 -148 -226 -1 -173 56 -248 190 -248 76 0 120 24 153
81 25 43 25 48 28 297 l3 252 -35 0 -36 0 0 -100z m-58 -132 c44 -22 67 -134
49 -233 -14 -77 -43 -105 -108 -105 -85 0 -122 72 -110 216 2 35 12 76 22 90
30 47 92 60 147 32z"/>
<path d="M2895 1033 c-65 -24 -101 -74 -115 -163 -16 -108 8 -207 62 -256 38
-35 64 -44 128 -44 69 0 106 15 143 60 35 41 47 89 47 186 0 68 -4 89 -27 135
-17 32 -40 61 -58 71 -47 26 -122 31 -180 11z m137 -65 c10 -5 26 -23 35 -41
22 -41 25 -186 4 -235 -16 -37 -56 -62 -100 -62 -79 0 -113 48 -119 165 -3 69
0 86 20 125 32 63 95 82 160 48z"/>
<path d="M3384 1041 c-49 -12 -90 -47 -108 -91 -12 -32 -16 -77 -16 -210 l0
-170 35 0 35 0 0 155 c0 170 9 211 53 240 27 17 69 22 103 11 16 -5 23 0 32
19 10 21 9 26 -7 34 -27 15 -92 21 -127 12z"/>
<path d="M3675 1044 c-43 -10 -105 -36 -105 -44 0 -5 5 -20 11 -34 l11 -24 32
19 c38 23 125 25 165 4 29 -14 51 -58 51 -100 0 -22 -3 -22 -102 -21 -114 1
-153 -12 -185 -60 -24 -37 -22 -117 3 -152 36 -48 79 -63 169 -60 89 4 128 19
159 61 18 25 21 45 24 165 3 130 2 139 -20 172 -13 19 -39 42 -58 52 -37 17
-122 29 -155 22z m143 -260 c25 -7 29 -40 11 -93 -14 -40 -54 -61 -119 -61
-41 0 -56 5 -75 25 -39 38 -29 106 18 125 25 10 131 13 165 4z"/>
<path d="M4607 1038 c-50 -13 -99 -63 -115 -115 -15 -49 -16 -175 -2 -225 13
-44 52 -93 91 -113 16 -9 55 -15 91 -15 113 0 171 55 188 177 17 123 -21 243
-88 277 -39 20 -119 27 -165 14z m126 -70 c30 -16 57 -87 57 -153 0 -125 -37
-185 -114 -185 -57 0 -101 35 -117 93 -16 58 -6 168 18 209 30 51 96 67 156
36z"/>
<path d="M1097 509 c-154 -100 -285 -138 -484 -141 -65 0 -102 -3 -83 -5 19
-2 40 -10 45 -17 6 -7 17 -15 25 -19 8 -3 -3 -6 -25 -7 -34 -2 -36 -3 -15 -9
14 -4 24 -13 22 -20 -1 -7 3 -19 9 -27 9 -11 7 -14 -10 -14 -15 0 -20 4 -15
13 6 8 3 8 -9 -1 -10 -9 -29 -12 -49 -8 -25 4 -22 2 12 -10 64 -22 237 -22
320 0 170 46 380 208 380 293 0 37 -35 29 -123 -28z"/>
<path d="M3557 428 c-14 -11 -17 -37 -18 -187 -1 -157 1 -176 17 -188 36 -26
182 -9 216 24 39 39 40 132 2 160 -15 11 -15 14 0 35 21 30 20 97 -2 126 -29
38 -177 58 -215 30z m169 -49 c16 -13 19 -66 5 -88 -6 -10 -33 -16 -75 -19
l-66 -4 0 59 c0 33 3 63 8 67 10 11 111 0 128 -15z m6 -166 c25 -22 24 -84 -1
-107 -12 -11 -43 -20 -80 -23 l-61 -6 0 77 0 76 62 0 c43 0 67 -5 80 -17z"/>
<path d="M4660 425 c-16 -19 -6 -45 19 -45 23 0 35 28 20 46 -15 18 -24 18
-39 -1z"/>
<path d="M4800 261 c0 -162 2 -181 19 -202 16 -19 22 -21 32 -12 10 10 10 18
1 38 -8 17 -12 86 -12 190 0 158 -1 165 -20 165 -19 0 -20 -7 -20 -179z"/>
<path d="M3910 311 c-30 -29 -30 -30 -30 -150 0 -113 1 -121 19 -121 18 0 20
10 23 115 4 134 12 150 79 148 33 -2 40 1 37 15 -2 13 -15 18 -51 20 -41 3
-51 -1 -77 -27z"/>
<path d="M4112 329 c-26 -10 -27 -47 -1 -40 76 22 123 11 138 -31 6 -17 9 -34
6 -37 -3 -2 -37 -5 -75 -5 -58 -1 -73 -5 -92 -24 -30 -30 -31 -93 -1 -123 47
-48 182 -30 203 26 6 15 10 62 10 106 0 76 -2 82 -29 110 -25 25 -37 29 -83
28 -29 0 -63 -4 -76 -10z m144 -162 c6 -17 -13 -69 -29 -79 -21 -13 -85 -9
-101 8 -19 18 -21 55 -4 72 17 17 127 16 134 -1z"/>
<path d="M4402 325 c-68 -49 -34 -145 51 -145 12 0 39 -5 60 -11 32 -9 37 -14
37 -39 0 -19 -7 -33 -19 -40 -29 -15 -88 -12 -123 6 -25 13 -32 14 -39 2 -14
-21 -11 -25 31 -42 76 -30 160 -15 185 35 35 67 7 106 -83 119 -35 5 -70 14
-78 21 -23 19 -12 52 21 68 26 12 35 12 72 -1 38 -14 43 -14 48 0 9 25 -12 36
-78 40 -46 2 -68 -1 -85 -13z"/>
<path d="M4660 206 c0 -109 3 -138 16 -150 8 -9 19 -16 24 -16 13 0 21 33 10
44 -6 6 -10 62 -10 133 0 116 -1 123 -20 123 -19 0 -20 -7 -20 -134z"/>
</g>
</svg>
